<?xml version="1.0" standalone="no"?>
<!DOCTYPE svg PUBLIC "-//W3C//DTD SVG 20010904//EN"
 "http://www.w3.org/TR/2001/REC-SVG-20010904/DTD/svg10.dtd">
<svg version="1.0" xmlns="http://www.w3.org/2000/svg"
 width="334.000000pt" height="334.000000pt" viewBox="0 0 334.000000 334.000000"
 preserveAspectRatio="xMidYMid meet">
<metadata>
Created by potrace 1.11, written by Peter Selinger 2001-2013
</metadata>
<g transform="translate(0.000000,334.000000) scale(0.100000,-0.100000)"
fill="#000000" stroke="none">
<path d="M1527 3334 c-3 -3 -90 -13 -115 -13 -13 -1 -21 -4 -19 -8 3 -5 -9 -9
-26 -9 -44 -2 -108 -13 -121 -22 -11 -7 -16 -8 -49 -10 -11 -1 -15 -7 -11 -14
4 -7 3 -8 -5 -4 -35 22 -473 -186 -455 -216 3 -5 2 -8 -3 -7 -18 3 -29 -2 -58
-26 -94 -79 -122 -104 -166 -147 -27 -25 -49 -51 -49 -57 0 -6 -5 -11 -10 -11
-11 0 -59 -50 -60 -62 0 -4 -11 -19 -24 -34 -42 -47 -50 -58 -92 -124 -55 -87
-105 -186 -97 -194 4 -3 2 -6 -4 -6 -13 0 -66 -128 -58 -141 4 -5 2 -9 -3 -9
-8 0 -37 -86 -61 -185 -14 -56 -24 -133 -25 -182 -1 -24 -4 -43 -7 -43 -4 0
-5 -66 -4 -147 3 -202 4 -205 15 -198 6 4 7 -2 1 -17 -4 -13 -5 -32 -1 -43 4
-11 13 -48 19 -82 29 -157 150 -459 179 -448 11 4 12 2 4 -8 -10 -11 8 -47 55
-113 20 -27 34 -51 39 -66 4 -10 13 -18 22 -18 8 0 12 -3 9 -7 -15 -15 207
-247 293 -306 25 -17 46 -34 48 -39 2 -4 10 -8 17 -8 7 0 15 -4 17 -9 6 -17
119 -82 130 -75 6 4 8 3 5 -3 -3 -5 17 -21 45 -34 28 -13 52 -22 53 -19 1 3 9
-3 19 -13 10 -9 22 -15 27 -12 5 4 9 2 9 -3 0 -5 57 -28 127 -52 114 -38 146
-46 219 -54 11 -1 24 -5 30 -8 5 -3 21 -5 37 -4 15 1 27 -2 27 -6 0 -5 12 -8
28 -8 15 0 86 -1 157 -3 156 -4 237 1 229 15 -4 6 1 6 13 -1 11 -6 23 -8 25
-5 3 3 25 7 49 10 96 11 366 94 380 116 3 5 9 9 13 9 20 -3 26 0 20 11 -4 6
-3 8 4 4 11 -7 62 13 62 24 0 4 6 7 13 7 8 0 40 15 71 33 44 25 55 35 44 42
-10 7 -8 8 5 4 20 -6 59 15 94 51 12 13 25 23 28 23 14 0 64 44 59 52 -3 5 0
7 8 6 7 -2 12 3 10 10 -1 8 1 11 6 8 10 -6 37 10 37 24 0 5 3 10 8 10 11 0 47
38 47 50 0 6 3 9 8 8 13 -5 53 42 46 55 -4 7 -4 9 1 5 12 -11 68 50 59 64 -4
7 -4 10 1 6 11 -10 86 92 78 105 -3 6 -2 7 4 4 6 -4 19 10 29 31 10 20 22 39
25 42 11 9 88 168 110 225 11 30 17 60 13 66 -4 7 -3 9 4 5 9 -5 15 10 27 64
1 3 9 31 19 63 9 33 18 74 20 91 2 18 5 37 8 42 25 40 33 515 9 500 -3 -2 -6
10 -5 27 1 30 -21 149 -33 177 -3 8 -7 22 -8 30 -4 29 -28 105 -37 115 -4 5
-8 15 -8 23 0 24 -102 232 -111 226 -5 -3 -6 1 -3 9 3 8 -2 20 -11 27 -8 7
-15 18 -15 26 0 7 -7 17 -16 22 -9 5 -15 12 -14 16 2 10 -33 66 -42 66 -4 0
-8 7 -8 16 0 10 -6 14 -14 11 -7 -3 -13 0 -12 7 2 20 -41 72 -138 168 -49 48
-93 85 -99 81 -5 -3 -7 -1 -4 4 4 6 -9 21 -28 34 -19 13 -35 28 -35 33 0 4 -8
5 -17 2 -10 -4 -14 -4 -11 0 15 15 -164 130 -183 118 -8 -5 -9 -3 -4 6 6 10 4
12 -9 7 -9 -4 -15 -3 -12 2 12 18 -252 125 -281 114 -11 -4 -14 -3 -9 5 4 7 4
12 -1 13 -14 1 -37 6 -83 19 -48 13 -53 14 -115 24 -128 21 -175 24 -167 11 3
-5 -1 -5 -9 1 -9 8 -57 11 -132 11 -65 -1 -119 -2 -120 -3z"/>
</g>
</svg>
